<!-- icon666.com - MILLIONS OF FREE VECTOR ICONS --><svg xmlns="http://www.w3.org/2000/svg" xmlns:xlink="http://www.w3.org/1999/xlink" version="1.1" id="Layer_1" x="0px" y="0px" viewBox="0 0 490 490" style="enable-background:new 0 0 490 490;" xml:space="preserve"><g><path style="fill:#38BBF5;" d="M490,245c0,45.72-12.52,88.51-34.33,125.14c-6.55,11-13.94,21.45-22.08,31.25 c-3.42,4.12-6.97,8.13-10.65,12.01c-2.29,2.43-4.64,4.81-7.03,7.14c-39.38,38.34-91.62,63.55-149.63,68.54 c-0.41,0.04-0.82,0.07-1.23,0.1c-2.49,0.21-5,0.37-7.52,0.5c-4.15,0.21-8.33,0.32-12.53,0.32c-8.51,0-16.93-0.44-25.22-1.29 c-2.52-0.25-5.02-0.55-7.52-0.88c-29.89-3.99-58.08-13.37-83.55-27.13c-0.01,0-0.01-0.01-0.01-0.01 c-11.75-6.35-22.92-13.62-33.41-21.75c-5.4-4.16-10.62-8.56-15.65-13.16c-7.92-7.25-15.36-15.01-22.27-23.23 c-7.1-8.44-13.63-17.37-19.54-26.73c-6.45-10.17-12.15-20.85-17.06-31.96c-0.06-0.13-0.11-0.26-0.17-0.39 c-3.76-8.56-7.05-17.37-9.82-26.41c-5.47-17.78-8.97-36.42-10.24-55.67C0.18,255.97,0,250.51,0,245C0,109.69,109.69,0,245,0 S490,109.69,490,245z"></path><g><path style="fill:#DD0D3E;" d="M455.67,370.14c-40.72,68.41-113.81,115.29-198.14,119.54c-4.15,0.21-8.33,0.32-12.53,0.32 c-8.51,0-16.93-0.44-25.22-1.29v-87.32c0-42.53,29.17-78.27,68.61-88.25c4.85-1.24,9.86-2.08,14.99-2.49 c2.46-0.2,4.94-0.3,7.45-0.3h59.29c6.94,0,13.7,0.77,20.19,2.24c0.06,0.01,0.13,0.03,0.19,0.04 C420.71,319.54,445.19,341.47,455.67,370.14z"></path><path style="fill:#F73A65;" d="M455.67,370.14c-39.3,66.03-108.77,112-189.39,118.94v-87.69c0-6.45,0.67-12.75,1.95-18.82 c2.5-11.92,7.34-22.97,14.01-32.67c0.26-0.4,0.54-0.78,0.81-1.17c5.05-7.11,11.09-13.46,17.93-18.84 c15.5-12.24,35.08-19.54,56.36-19.54h12.78c4.1,0,8.14,0.27,12.1,0.8c7.13,0.94,14.01,2.72,20.52,5.23 C427.25,325.77,446.65,345.46,455.67,370.14z"></path><g><path style="fill:#BF7C5E;" d="M372.957,275.278v39.865c0,14.595-9.623,26.931-22.878,31.028 c-3.034,0.941-6.268,1.451-9.612,1.451c-17.939,0-32.479-14.54-32.479-32.479v-39.865H372.957z"></path><path style="fill:#D39272;" d="M372.957,312.618v2.525c0,14.595-9.623,26.931-22.878,31.028 c-11.959-3.676-20.951-14.075-22.612-26.798c2.17,0.133,4.352,0.199,6.544,0.199c6.146,0,12.17-0.487,18.039-1.451 C359.281,316.959,366.269,315.099,372.957,312.618z"></path></g><path style="fill:#D39272;" d="M251.364,209.943c0,15.038-10.985,27.507-25.37,29.821c-1.572,0.255-3.189,0.388-4.839,0.388 c-16.688,0-30.209-13.521-30.209-30.209s13.521-30.209,30.209-30.209c1.65,0,3.267,0.133,4.839,0.388 C240.379,182.437,251.364,194.905,251.364,209.943z"></path><path style="fill:#BF7C5E;" d="M251.364,209.943c0,15.038-10.985,27.507-25.37,29.821c-2.613-9.501-4.009-19.501-4.009-29.821 c0-10.321,1.395-20.32,4.009-29.821C240.379,182.437,251.364,194.905,251.364,209.943z"></path><circle style="fill:#BF7C5E;" cx="221.155" cy="209.943" r="10.797"></circle><path style="fill:#D39272;" d="M429.579,209.943c0,15.038,10.985,27.507,25.37,29.821c1.572,0.255,3.189,0.388,4.839,0.388 c16.688,0,30.209-13.521,30.209-30.209s-13.521-30.209-30.209-30.209c-1.65,0-3.267,0.133-4.839,0.388 C440.564,182.437,429.579,194.905,429.579,209.943z"></path><path style="fill:#BF7C5E;" d="M429.579,209.943c0,15.038,10.985,27.507,25.37,29.821c2.613-9.501,4.009-19.501,4.009-29.821 c0-10.321-1.395-20.32-4.009-29.821C440.564,182.437,429.579,194.905,429.579,209.943z"></path><path style="fill:#BF7C5E;" d="M452.868,151.091v42.8c0,55.93-40.86,102.33-94.36,110.94c-0.18,0.03-0.37,0.06-0.55,0.09 c-5.69,0.91-11.53,1.36-17.49,1.36c-62.07,0-112.39-50.32-112.39-112.39v-42.8c0-13.07,2.23-25.63,6.35-37.3 c15.37-43.74,57.05-75.1,106.04-75.1h0.01c5.95,0,11.8,0.46,17.5,1.36C411.738,48.451,452.868,94.971,452.868,151.091z"></path><circle style="fill:#BF7C5E;" cx="459.788" cy="209.943" r="10.797"></circle><path style="fill:#D39272;" d="M452.868,151.091v42.8c0,55.93-40.86,102.33-94.36,110.94c-0.18,0.03-0.37,0.06-0.55,0.09 c-53.76-8.4-94.88-54.92-94.88-111.03v-42.8c0-56.12,41.13-102.64,94.9-111.04C411.738,48.451,452.868,94.971,452.868,151.091z"></path><path style="fill:#BF7C5E;" d="M340.47,254.246c-9.412,0-18.823-2.358-27.402-7.074c-2.42-1.33-3.303-4.37-1.973-6.79 c1.331-2.42,4.371-3.302,6.79-1.973c14.142,7.775,31.028,7.774,45.169,0c2.418-1.33,5.459-0.448,6.79,1.973 c1.331,2.42,0.447,5.46-1.973,6.79C359.293,251.888,349.881,254.246,340.47,254.246z"></path><path style="fill:#BF7C5E;" d="M353.22,219.449h-25.5c-3.038,0-5.5-2.462-5.5-5.5l0,0c0-3.038,2.462-5.5,5.5-5.5h25.5 c3.038,0,5.5,2.462,5.5,5.5l0,0C358.72,216.986,356.257,219.449,353.22,219.449z"></path><g><circle style="fill:#233559;" cx="303.786" cy="187.346" r="12.75"></circle><circle style="fill:#233559;" cx="377.16" cy="187.346" r="12.75"></circle></g><g><circle style="fill:#FFFFFF;" cx="308.473" cy="185.096" r="5.463"></circle><circle style="fill:#FFFFFF;" cx="382.473" cy="185.096" r="5.463"></circle></g><path style="fill:#233559;" d="M454.958,22.901v157.22c-6.1-2.73-11.33-6.87-15.34-11.98c-4.01-5.1-6.8-11.16-8.01-17.73 l-5.36-29.12c-2.61-14.14-16.43-23.3-30.47-20.18l-35.33,7.85c-13.15,2.93-26.79,2.93-39.94,0l-32.03-7.12l-3.3-0.73 c-14.04-3.12-27.86,6.04-30.47,20.18l-5.36,29.12c-2.42,13.14-11.16,24.25-23.35,29.71V22.901c0,0,18.34,0,45.79,0h137.38 C436.618,22.901,454.958,22.901,454.958,22.901z"></path><path style="fill:#233559;" d="M271.788,22.901c0,12.65-10.25,22.9-22.9,22.9c-12.64,0-22.89-10.25-22.89-22.9 s10.25-22.9,22.89-22.9C261.538,0.001,271.788,10.251,271.788,22.901z"></path><path style="fill:#233559;" d="M317.578,22.901c0,12.65-10.25,22.9-22.89,22.9c-2.15,0-4.24-0.3-6.21-0.86 c-9.63-2.7-16.69-11.54-16.69-22.04s7.06-19.34,16.69-22.04c1.97-0.56,4.06-0.86,6.21-0.86 C307.328,0.001,317.578,10.251,317.578,22.901z"></path><circle style="fill:#233559;" cx="340.478" cy="22.901" r="22.897"></circle><circle style="fill:#233559;" cx="386.271" cy="22.901" r="22.897"></circle><circle style="fill:#233559;" cx="432.065" cy="22.901" r="22.897"></circle><path style="fill:#151A1C;" d="M271.788,22.901v78.86c-8.53,2.79-15.33,10.04-17.08,19.53l-5.36,29.12 c-2.42,13.14-11.16,24.25-23.35,29.71V22.901c0-12.65,10.25-22.9,22.89-22.9C261.538,0.001,271.788,10.251,271.788,22.901z"></path><path style="fill:#BF7C5E;" d="M265.05,401.39v87.79c-2.49,0.21-5,0.37-7.52,0.5c-4.15,0.21-8.33,0.32-12.53,0.32 c-8.51,0-16.93-0.44-25.22-1.29v-87.32H265.05z"></path><path style="fill:#D39272;" d="M433.59,401.39c-5.55,6.69-11.46,13.09-17.68,19.15v-19.15H433.59z"></path><path style="fill:#F2EFEA;" d="M433.59,401.39c-3.42,4.12-6.97,8.13-10.65,12.01h-7.03v-12.01H433.59z"></path><rect x="219.778" y="401.391" style="fill:#F2EFEA;" width="45.27" height="12.01"></rect></g><g><path style="fill:#6D2075;" d="M136.83,416.78l-41.54,22.16c-5.4-4.16-10.62-8.56-15.65-13.16c-7.92-7.25-15.36-15.01-22.27-23.23 c-14.81-17.62-27.18-37.35-36.6-58.69l0.11-86.36L136.83,416.78z"></path><polyline style="fill:#6D2075;" points="253.03,257.503 253.03,455.666 137.08,416.781 143.546,416.781 "></polyline><path style="fill:#EA9D88;" d="M257.53,478.77v10.91c-4.15,0.21-8.33,0.32-12.53,0.32c-42.09,0-81.69-10.61-116.29-29.3 c-0.01,0-0.01-0.01-0.01-0.01c-17.79-9.61-34.26-21.36-49.06-34.91c-7.92-7.25-15.36-15.01-22.27-23.23 c1.46-0.96,2.95-1.87,4.46-2.74c7.41-4.27,15.47-7.52,24-9.56c4.51-1.09,9.15-1.84,13.9-2.22c2.46-0.2,4.94-0.3,7.45-0.3h59.29 c7.01,0,13.83,0.78,20.38,2.28c0.33,0.08,0.66,0.15,0.98,0.23c8.53,2.05,16.59,5.3,24,9.57c11,6.33,20.54,14.89,28.02,25.05 C250.97,439.96,257.53,458.6,257.53,478.77z"></path><path style="fill:#F6C2AA;" d="M257.53,478.77v10.91c-4.15,0.21-8.33,0.32-12.53,0.32c-42.09,0-81.69-10.61-116.29-29.3 c-0.01,0-0.01-0.01-0.01-0.01c-17.79-9.61-34.26-21.36-49.06-34.91c16.52-23.04,43.53-38.05,74.05-38.05h12.78 C216.77,387.73,257.53,428.49,257.53,478.77z"></path><g><path style="fill:#EA9D88;" d="M169.306,352.659v39.865c0,14.595-9.623,26.931-22.878,31.028 c-3.034,0.941-6.268,1.451-9.612,1.451c-17.939,0-32.479-14.54-32.479-32.479v-39.865H169.306z"></path><path style="fill:#F6C2AA;" d="M169.306,389.999v2.525c0,14.595-9.623,26.931-22.878,31.028 c-11.959-3.676-20.951-14.075-22.612-26.798c2.17,0.133,4.352,0.199,6.544,0.199c6.146,0,12.17-0.487,18.039-1.451 C155.63,394.34,162.618,392.48,169.306,389.999z"></path></g><g><path style="fill:#F6C2AA;" d="M46.25,287.32c0,15.04-10.99,27.51-25.37,29.83c-1.58,0.25-3.19,0.38-4.84,0.38 c-1.79,0-3.55-0.16-5.26-0.47c-5.47-17.78-8.97-36.42-10.24-55.67c4.53-2.71,9.84-4.27,15.5-4.27c1.65,0,3.26,0.13,4.84,0.38 C35.26,259.82,46.25,272.29,46.25,287.32z"></path><path style="fill:#EA9D88;" d="M46.246,287.324c0,15.038-10.985,27.507-25.37,29.821c-2.613-9.501-4.009-19.501-4.009-29.821 s1.395-20.32,4.009-29.821C35.261,259.817,46.246,272.286,46.246,287.324z"></path><circle style="fill:#EA9D88;" cx="16.037" cy="287.324" r="10.797"></circle><path style="fill:#F6C2AA;" d="M227.397,287.324c0,15.038,10.985,27.507,25.37,29.821c1.572,0.255,3.189,0.388,4.839,0.388 c16.688,0,30.209-13.521,30.209-30.209s-13.521-30.209-30.209-30.209c-1.65,0-3.267,0.133-4.839,0.388 C238.382,259.817,227.397,272.286,227.397,287.324z"></path><path style="fill:#EA9D88;" d="M227.397,287.324c0,15.038,10.985,27.507,25.37,29.821c2.613-9.501,4.009-19.501,4.009-29.821 s-1.395-20.32-4.009-29.821C238.382,259.817,227.397,272.286,227.397,287.324z"></path><circle style="fill:#EA9D88;" cx="257.606" cy="287.324" r="10.797"></circle></g><path style="fill:#EA9D88;" d="M249.217,228.472v42.8c0,55.93-40.86,102.33-94.36,110.94c-0.18,0.03-0.37,0.06-0.55,0.09 c-5.69,0.91-11.53,1.36-17.49,1.36c-62.07,0-112.39-50.32-112.39-112.39v-42.8c0-13.07,2.23-25.63,6.35-37.3 c15.37-43.74,57.05-75.1,106.04-75.1h0.01c5.95,0,11.8,0.46,17.5,1.36C208.087,125.832,249.217,172.352,249.217,228.472z"></path><path style="fill:#F6C2AA;" d="M249.217,228.472v42.8c0,55.93-40.86,102.33-94.36,110.94c-0.18,0.03-0.37,0.06-0.55,0.09 c-53.76-8.4-94.88-54.92-94.88-111.03v-42.8c0-56.12,41.13-102.64,94.9-111.04C208.087,125.832,249.217,172.352,249.217,228.472z"></path><g><circle style="fill:#EA9D88;" cx="199.322" cy="300.782" r="14"></circle><circle style="fill:#EA9D88;" cx="74.322" cy="300.782" r="14"></circle></g><path style="fill:#EA9D88;" d="M197.18,261.78c0-10.309-8.357-18.667-18.667-18.667c-10.309,0-18.667,8.357-18.667,18.667"></path><path style="fill:#EA9D88;" d="M113.806,261.78c0-10.309-8.357-18.667-18.667-18.667s-18.667,8.357-18.667,18.667"></path><circle style="fill:#233559;" cx="95.139" cy="269.727" r="12.75"></circle><circle style="fill:#233559;" cx="178.513" cy="269.727" r="12.75"></circle><path style="fill:#EA9D88;" d="M149.576,301.829h-25.5c-3.038,0-5.5-2.462-5.5-5.5v0c0-3.038,2.462-5.5,5.5-5.5h25.5 c3.038,0,5.5,2.462,5.5,5.5v0C155.076,299.366,152.614,301.829,149.576,301.829z"></path><path style="fill:#EA9D88;" d="M136.826,336.626c-9.412,0-18.823-2.358-27.402-7.074c-2.42-1.33-3.303-4.37-1.973-6.79 c1.331-2.42,4.371-3.302,6.79-1.973c14.142,7.775,31.028,7.774,45.169,0c2.418-1.33,5.459-0.448,6.79,1.973 c1.331,2.42,0.447,5.46-1.973,6.79C155.649,334.268,146.238,336.626,136.826,336.626z"></path><circle style="fill:#FFFFFF;" cx="99.826" cy="267.477" r="5.463"></circle><circle style="fill:#FFFFFF;" cx="183.827" cy="267.477" r="5.463"></circle><polygon style="fill:#833989;" points="253.03,181.511 253.03,239.781 20.6,239.781 20.6,206.331 21.59,169.331 37.83,143.781 88.83,105.781 115.58,101.701 147.83,96.781 213.83,120.781 "></polygon><path style="fill:#6D2075;" d="M85.94,239.78H37.83v136.04c-6.45-10.17-12.15-20.85-17.06-31.96c-0.06-0.13-0.11-0.26-0.17-0.39 V206.33l0.99-37l16.24-25.55l51-38l26.75-4.08C92.61,125.31,82.61,186.81,85.94,239.78z"></path><path style="fill:#FFDF57;" d="M254.16,190.661c0,5.33-0.38,10.58-1.13,15.71c-7.93-54.68-56.93-96.77-116.21-96.77 c-6.42,0-12.71,0.48-18.83,1.45c-15.01,2.31-29.06,7.35-41.58,14.56c-29.68,17.11-50.82,46.45-55.81,80.72 c-0.74-5.12-1.12-10.35-1.12-15.67c0-40.91,22.82-76.72,56.93-96.37c12.53-7.22,26.58-12.26,41.58-14.57 c6.12-0.97,12.41-1.45,18.83-1.45C201.63,78.271,254.16,128.591,254.16,190.661z"></path><path style="fill:#00A1CC;" d="M257.53,478.77v10.91c-4.15,0.21-8.33,0.32-12.53,0.32c-42.09,0-81.69-10.61-116.29-29.3 c2.68,0.11,5.39,0.17,8.11,0.17c6.89,0,13.65-0.36,20.22-1.09c16.12-1.75,31.21-5.55,44.65-11c15.05-6.1,28.05-14.27,38.16-23.92 C250.97,439.96,257.53,458.6,257.53,478.77z"></path><polygon style="fill:#833989;" points="253.03,461.304 235.8,409.177 235.8,239.781 253.03,239.781 "></polygon><polyline style="fill:#F6C2AA;" points="213.693,239.781 198.242,195.458 196.242,248.781 "></polyline><path style="fill:#44D6BE;" d="M257.53,478.77v10.91c-4.15,0.21-8.33,0.32-12.53,0.32c-42.09,0-81.69-10.61-116.29-29.3 c2.68,0.11,5.39,0.17,8.11,0.17c6.89,0,13.65-0.36,20.22-1.09c16.12-1.75,31.21-5.55,44.65-11c15.05-6.1,28.05-14.27,38.16-23.92 C250.97,439.96,257.53,458.6,257.53,478.77z"></path><path style="fill:#F6C2AA;" d="M257.53,478.77v10.91c-4.15,0.21-8.33,0.32-12.53,0.32c-11.1,0-22.03-0.74-32.74-2.17v-9.06H257.53 z"></path></g></g></svg>