<!-- icon666.com - MILLIONS OF FREE VECTOR ICONS --><svg viewBox="0 0 512 512" xmlns="http://www.w3.org/2000/svg" xmlns:xlink="http://www.w3.org/1999/xlink"><linearGradient id="a" gradientUnits="userSpaceOnUse" x1="0" x2="512" y1="256" y2="256"><stop offset="0" stop-color="#00f38d"></stop><stop offset="1" stop-color="#009eff"></stop></linearGradient><path d="m512 256c0 141.386719-114.613281 256-256 256s-256-114.613281-256-256 114.613281-256 256-256 256 114.613281 256 256zm0 0" fill="url(#a)"></path><g fill="#fff"><path d="m372.867188 135.074219c-28.710938-20.742188-69.121094-31.707031-116.867188-31.707031s-88.15625 10.964843-116.867188 31.707031c-33.355468 24.101562-50.988281 61.324219-50.988281 107.648437 0 50.898438 20.785157 89.984375 60.277344 113.773438-5.335937 18.167968-11.96875 29.117187-12.023437 29.207031l-14.089844 22.816406 26.878906.113281h.210938c7.445312 0 41.359374-1.59375 69.210937-28.96875 11.882813 1.601563 24.421875 2.414063 37.390625 2.414063 47.746094 0 88.15625-10.964844 116.867188-31.710937 33.355468-24.097657 50.988281-61.320313 50.988281-107.644532 0-46.324218-17.628907-83.546875-50.988281-107.648437zm-116.867188 217.003906c-14.257812 0-27.855469-1.082031-40.421875-3.214844l-8.347656-1.417969-5.527344 6.417969c-8.628906 10.019531-18.398437 16-27.199219 19.5625 2.140625-6.21875 4.234375-13.34375 5.988282-21.246093l2.542968-11.492188-10.554687-5.207031c-36.054688-17.78125-54.335938-48.992188-54.335938-92.757813 0-95.148437 86.371094-109.355468 137.855469-109.355468s137.851562 14.207031 137.851562 109.355468c.003907 95.148438-86.367187 109.355469-137.851562 109.355469zm0 0"></path><path d="m256.550781 196.980469 30.742188 30.742187h-110.957031v30h112.753906l-32.539063 32.539063 21.210938 21.214843 67.855469-67.855468-67.855469-67.855469zm0 0"></path></g></svg>