<!-- icon666.com - MILLIONS OF FREE VECTOR ICONS --><svg version="1.1" id="Capa_1" xmlns="http://www.w3.org/2000/svg" xmlns:xlink="http://www.w3.org/1999/xlink" x="0px" y="0px" viewBox="0 0 512 512" style="enable-background:new 0 0 512 512;" xml:space="preserve"><circle style="fill:#00C8C8;" cx="256" cy="256" r="256"></circle><path style="fill:#1CADB5;" d="M511.966,258.716l-98.012-97.999L100.777,373.004l138.528,138.44 C244.826,511.799,250.389,512,256,512C396.477,512,510.506,398.848,511.966,258.716z"></path><polygon style="fill:#FFFFFF;" points="413.953,366.109 98.047,366.109 98.047,122.553 193.553,122.553 235.644,160.718 413.953,160.718 "></polygon><rect x="255.57" y="160.72" style="fill:#F2F6FC;" width="158.38" height="205.39"></rect><path style="fill:#FFD400;" d="M382.648,384.87H129.316c-22.16,0-40.152-17.911-40.253-40.071L88.5,220.879h133.626l44.801-41.401 H423.5l-0.599,165.284C422.82,366.936,404.822,384.87,382.648,384.87z"></path><path style="fill:#FFB000;" d="M266.927,179.478l-11.356,10.494V384.87h127.076c22.174,0,40.173-17.933,40.253-40.107l0.599-165.284 H266.927V179.478z"></path><circle style="fill:#4A7AFF;" cx="324.91" cy="236.34" r="39.15"></circle><path style="fill:#2864F0;" d="M324.907,197.181c-0.296,0-0.589,0.016-0.883,0.022v78.263c0.295,0.007,0.587,0.022,0.883,0.022 c21.624,0,39.154-17.53,39.154-39.154S346.531,197.181,324.907,197.181z"></path><path style="fill:#4A7AFF;" d="M253.263,354.164c0-39.568,32.076-71.644,71.644-71.644s71.644,32.076,71.644,71.644H253.263z"></path><path style="fill:#2864F0;" d="M324.907,282.52c-0.296,0-0.588,0.019-0.883,0.022v71.622h72.527 C396.551,314.596,364.475,282.52,324.907,282.52z"></path></svg>