<svg width="32" height="24" viewBox="0 0 32 24" fill="none" xmlns="http://www.w3.org/2000/svg">
<g clip-path="url(#clip0_270_67381)">
<rect width="32" height="24" fill="white"/>
<path fill-rule="evenodd" clip-rule="evenodd" d="M0 0V24H32V0H0Z" fill="#3D58DB"/>
<mask id="mask0_270_67381" style="mask-type:luminance" maskUnits="userSpaceOnUse" x="0" y="0" width="32" height="24">
<path fill-rule="evenodd" clip-rule="evenodd" d="M0 0V24H32V0H0Z" fill="white"/>
</mask>
<g mask="url(#mask0_270_67381)">
<path fill-rule="evenodd" clip-rule="evenodd" d="M0 0V8H32V0H0Z" fill="#F7FCFF"/>
<path fill-rule="evenodd" clip-rule="evenodd" d="M0 16V24H32V16H0Z" fill="#E31D1C"/>
<path d="M16.0533 5.53033L16.1012 5.9776V5.98151C16.1015 5.98407 16.1026 5.98828 16.1031 5.99323C16.1042 6.00309 16.1051 6.01753 16.1071 6.03619C16.111 6.07431 16.1165 6.13044 16.1237 6.20221C16.138 6.34573 16.1589 6.55251 16.1823 6.8067C16.2288 7.31489 16.2876 8.01348 16.3385 8.7735C16.4264 10.0858 16.4933 11.6316 16.4127 12.6885L16.3688 13.1094C16.0853 15.1532 14.8564 18.4616 11.1823 20.1046L10.9811 20.1944L10.7799 20.1075C7.15336 18.541 6.04792 15.2021 5.74377 13.4376L5.69299 13.1065C5.581 12.2647 5.62343 10.4624 5.68811 8.92291C5.72092 8.14188 5.76046 7.41078 5.79163 6.87506C5.80721 6.6072 5.82103 6.38779 5.83069 6.23541C5.83552 6.15922 5.83878 6.09917 5.84143 6.05865C5.84275 6.03858 5.84464 6.02318 5.84534 6.01276C5.84568 6.00767 5.84516 6.00372 5.84534 6.00104C5.84542 5.99986 5.84627 5.99879 5.84631 5.99811V5.99713L5.87756 5.53033H16.0533Z" fill="#E31D1C" stroke="white"/>
<mask id="mask1_270_67381" style="mask-type:luminance" maskUnits="userSpaceOnUse" x="5" y="5" width="12" height="16">
<path d="M16.0533 5.53033L16.1012 5.9776V5.98151C16.1015 5.98407 16.1026 5.98828 16.1031 5.99323C16.1042 6.00309 16.1051 6.01753 16.1071 6.03619C16.111 6.07431 16.1165 6.13044 16.1237 6.20221C16.138 6.34573 16.1589 6.55251 16.1823 6.8067C16.2288 7.31489 16.2876 8.01348 16.3385 8.7735C16.4264 10.0858 16.4933 11.6316 16.4127 12.6885L16.3688 13.1094C16.0853 15.1532 14.8564 18.4616 11.1823 20.1046L10.9811 20.1944L10.7799 20.1075C7.15336 18.541 6.04792 15.2021 5.74377 13.4376L5.69299 13.1065C5.581 12.2647 5.62343 10.4624 5.68811 8.92291C5.72092 8.14188 5.76046 7.41078 5.79163 6.87506C5.80721 6.6072 5.82103 6.38779 5.83069 6.23541C5.83552 6.15922 5.83878 6.09917 5.84143 6.05865C5.84275 6.03858 5.84464 6.02318 5.84534 6.01276C5.84568 6.00767 5.84516 6.00372 5.84534 6.00104C5.84542 5.99986 5.84627 5.99879 5.84631 5.99811V5.99713L5.87756 5.53033H16.0533Z" fill="white" stroke="white"/>
</mask>
<g mask="url(#mask1_270_67381)">
<path fill-rule="evenodd" clip-rule="evenodd" d="M10.2571 6.58972C10.2571 6.58972 10.4636 6.90434 10.556 7.38543C10.6485 7.86651 10.6644 8.70943 10.6644 8.70943L8.70555 8.46824V9.95353L10.7082 9.69849L10.6756 11.1082C10.6756 11.1082 10.0765 11.1703 9.58514 11.1082C9.09376 11.0461 8.12573 10.7859 8.12573 10.7859V12.4863C8.12573 12.4863 9.10923 12.1717 9.58514 12.0995C10.061 12.0273 10.6756 12.0995 10.6756 12.0995V14.1878H11.4887V12.0995C11.4887 12.0995 12.3774 12.0222 12.9076 12.1058C13.4378 12.1895 13.9407 12.4863 13.9407 12.4863V10.7859C13.9407 10.7859 13.4312 11.0398 12.9506 11.1029C12.4701 11.1661 11.4887 11.1082 11.4887 11.1082L11.5212 9.69849C11.5212 9.69849 12.1865 9.62961 12.5597 9.68028C12.9329 9.73094 13.4 9.95353 13.4 9.95353V8.46824C13.4 8.46824 12.9447 8.71598 12.5865 8.76092C12.2283 8.80586 11.4775 8.70943 11.4775 8.70943C11.4775 8.70943 11.4908 7.83956 11.5678 7.416C11.6448 6.99244 11.8629 6.58972 11.8629 6.58972H10.2571Z" fill="#F7FCFF"/>
<path fill-rule="evenodd" clip-rule="evenodd" d="M6.89734 16.2452C6.89734 16.2452 7.33683 15.302 8.05197 15.1226C8.7671 14.9433 9.51698 15.6839 9.51698 15.6839C9.51698 15.6839 9.97488 14.1875 11.091 14.1875C12.2071 14.1875 12.5988 15.6839 12.5988 15.6839C12.5988 15.6839 13.075 15.1226 13.7598 15.1226C14.4445 15.1226 15.079 16.2452 15.079 16.2452C15.079 16.2452 13.0336 19.9587 10.9882 19.9587C8.94275 19.9587 6.89734 16.2452 6.89734 16.2452Z" fill="#2E42A5"/>
</g>
</g>
</g>
<defs>
<clipPath id="clip0_270_67381">
<rect width="32" height="24" fill="white"/>
</clipPath>
</defs>
</svg>
